<svg width="180" height="247" viewBox="0 0 180 247" fill="none" xmlns="http://www.w3.org/2000/svg">
<g filter="url(#filter0_f_328_890)">
<circle cx="88.5" cy="122.5" r="32.5" stroke="white" stroke-width="2"/>
</g>
<mask id="path-2-inside-1_328_890" fill="white">
<path fill-rule="evenodd" clip-rule="evenodd" d="M11.0003 77.7146C11.0001 77.6431 11 77.5715 11 77.4999C11 34.6979 45.6979 -7.62939e-05 88.5 -7.62939e-05C131.302 -7.62939e-05 166 34.6979 166 77.4999C166 77.5715 166 77.6431 166 77.7146H11.0003Z"/>
</mask>
<path d="M11.0003 77.7146V78.7146H10.003L10.0003 77.7173L11.0003 77.7146ZM166 77.7146L167 77.7174L166.997 78.7146H166V77.7146ZM12 77.4999C12 77.5706 12.0001 77.6413 12.0003 77.7119L10.0003 77.7173C10.0001 77.6449 10 77.5724 10 77.4999H12ZM88.5 0.999924C46.2502 0.999924 12 35.2501 12 77.4999H10C10 34.1456 45.1456 -1.00008 88.5 -1.00008V0.999924ZM165 77.4999C165 35.2501 130.75 0.999924 88.5 0.999924V-1.00008C131.854 -1.00008 167 34.1456 167 77.4999H165ZM165 77.7118C165 77.6413 165 77.5706 165 77.4999H167C167 77.5724 167 77.6448 167 77.7174L165 77.7118ZM166 78.7146H11.0003V76.7146H166V78.7146Z" fill="white" mask="url(#path-2-inside-1_328_890)"/>
<mask id="path-4-inside-2_328_890" fill="white">
<path fill-rule="evenodd" clip-rule="evenodd" d="M166 169C166 169.071 166 169.143 166 169.215C166 212.017 131.302 246.715 88.5 246.715C45.698 246.715 11 212.017 11 169.215C11 169.143 11.0001 169.071 11.0003 169L166 169Z"/>
</mask>
<path d="M166 169L166 168L166.997 168L167 168.997L166 169ZM11.0003 169L10.0003 168.997L10.0031 168L11.0003 168L11.0003 169ZM165 169.215C165 169.144 165 169.073 165 169.003L167 168.997C167 169.07 167 169.142 167 169.215L165 169.215ZM88.5 245.715C130.75 245.715 165 211.464 165 169.215L167 169.215C167 212.569 131.854 247.715 88.5 247.715L88.5 245.715ZM12 169.215C12 211.464 46.2502 245.715 88.5 245.715L88.5 247.715C45.1457 247.715 10 212.569 10 169.215L12 169.215ZM12.0003 169.003C12.0001 169.073 12 169.144 12 169.215L10 169.215C10 169.142 10.0001 169.07 10.0003 168.997L12.0003 169.003ZM11.0003 168L166 168L166 170L11.0003 170L11.0003 168Z" fill="white" mask="url(#path-4-inside-2_328_890)"/>
<path d="M35.6009 108C-33.6642 149.533 166 169 166 169" stroke="white"/>
<path d="M141.399 139C210.664 97.4661 11 77.9997 11 77.9997" stroke="white"/>
<path d="M12.5447 77.3736C158.827 56.8217 -3.23925 114.826 165.084 170.499" stroke="white"/>
<path d="M12 169.5C12 169.5 65.7849 137.543 72.8959 140.04C79.0192 142.19 78.453 155.947 84.0231 161.096C98.5812 174.555 88.156 111.965 119.312 120.153C150.468 128.342 14.2342 58.1982 77.5 77.4999" stroke="white"/>
<defs>
<filter id="filter0_f_328_890" x="51" y="85" width="75" height="75" filterUnits="userSpaceOnUse" color-interpolation-filters="sRGB">
<feFlood flood-opacity="0" result="BackgroundImageFix"/>
<feBlend mode="normal" in="SourceGraphic" in2="BackgroundImageFix" result="shape"/>
<feGaussianBlur stdDeviation="2" result="effect1_foregroundBlur_328_890"/>
</filter>
</defs>
</svg>
