<svg width="445" height="291" viewBox="0 0 445 291" fill="none" xmlns="http://www.w3.org/2000/svg">
<path d="M226.583 270.195C159.089 270.195 104.379 215.792 104.379 148.689C104.379 81.5853 159.089 27.1824 226.583 27.1824C294.077 27.1824 348.786 81.5853 348.786 148.689C348.786 215.792 294.077 270.195 226.583 270.195Z" stroke="white"/>
<path d="M226.234 280.653C152.773 280.653 93.2246 221.412 93.2246 148.34C93.2246 75.2684 152.773 16.0276 226.234 16.0276C299.696 16.0276 359.244 75.2684 359.244 148.34C359.244 221.412 299.696 280.653 226.234 280.653Z" stroke="white"/>
<path d="M230.069 192.111C205.699 192.111 185.95 172.51 185.95 148.34C185.95 124.17 205.699 104.569 230.069 104.569C254.439 104.569 274.188 124.17 274.188 148.34C274.188 172.51 254.439 192.111 230.069 192.111Z" stroke="white"/>
<path d="M226.583 185.837C192.73 185.837 162.1 182.133 139.949 176.155C128.869 173.165 119.939 169.613 113.791 165.69C107.619 161.752 104.379 157.526 104.379 153.221C104.379 148.916 107.619 144.69 113.791 140.752C119.939 136.829 128.869 133.277 139.949 130.287C162.1 124.309 192.73 120.605 226.583 120.605C260.436 120.605 291.066 124.309 313.217 130.287C324.296 133.277 333.226 136.829 339.375 140.752C345.547 144.69 348.786 148.916 348.786 153.221C348.786 157.526 345.547 161.752 339.375 165.69C333.226 169.613 324.296 173.165 313.217 176.155C291.066 182.133 260.436 185.837 226.583 185.837Z" stroke="white"/>
<path d="M230.418 156.555C221.111 156.555 212.704 155.543 206.638 153.918C203.601 153.104 201.18 152.143 199.529 151.097C197.855 150.036 197.105 148.974 197.105 147.992C197.105 147.009 197.855 145.948 199.529 144.886C201.18 143.84 203.601 142.88 206.638 142.066C212.704 140.44 221.111 139.428 230.418 139.428C239.724 139.428 248.132 140.44 254.198 142.066C257.234 142.88 259.656 143.84 261.306 144.886C262.981 145.948 263.731 147.009 263.731 147.992C263.731 148.974 262.981 150.036 261.306 151.097C259.656 152.143 257.234 153.104 254.198 153.918C248.132 155.543 239.724 156.555 230.418 156.555Z" stroke="white"/>
<line x1="229.89" y1="148.177" x2="190.151" y2="184.43" stroke="white" stroke-width="0.5"/>
<line x1="54.3799" y1="147.84" x2="405.064" y2="147.84" stroke="white"/>
<g filter="url(#filter0_f_328_910)">
<ellipse cx="230.766" cy="152.523" rx="28.2358" ry="28.5843" transform="rotate(90 230.766 152.523)" fill="white"/>
</g>
<path d="M212.489 193.374C175.316 177.508 143.698 158.423 122.629 140.408C112.091 131.398 104.215 122.675 99.5949 114.774C94.9686 106.864 93.6578 99.8726 96.0577 94.2497C98.4577 88.6268 104.413 84.7368 113.325 82.6049C122.227 80.4758 133.974 80.1283 147.77 81.5042C175.355 84.2552 211.008 93.8839 248.182 109.75C285.355 125.617 316.973 144.701 338.042 162.716C348.579 171.726 356.455 180.45 361.076 188.35C365.702 196.26 367.013 203.252 364.613 208.875C362.213 214.498 356.258 218.387 347.345 220.519C338.444 222.649 326.696 222.996 312.901 221.62C285.316 218.869 249.662 209.24 212.489 193.374Z" stroke="white"/>
<path d="M196.499 206.694C142.506 183.649 96.5739 155.927 65.9581 129.749C50.6479 116.658 39.1904 103.972 32.4638 92.4697C25.7312 80.9575 23.7888 70.7252 27.3149 62.4639C30.841 54.2025 39.5734 48.5265 52.5439 45.4239C65.5029 42.3241 82.5896 41.8215 102.634 43.8205C142.717 47.818 194.511 61.8071 248.503 84.8523C302.496 107.898 348.428 135.62 379.044 161.798C394.354 174.889 405.812 187.575 412.538 199.077C419.271 210.589 421.213 220.822 417.687 229.083C414.161 237.344 405.429 243.02 392.458 246.123C379.499 249.223 362.413 249.725 342.368 247.726C302.285 243.729 250.491 229.74 196.499 206.694Z" stroke="white"/>
<path d="M246.281 207.597C191.489 228.673 139.223 240.778 99.022 243.322C78.9183 244.594 61.861 243.474 49.0227 239.907C36.173 236.337 27.6518 230.349 24.427 221.965C21.2022 213.582 23.5136 203.426 30.6585 192.165C37.7969 180.914 49.7061 168.651 65.4801 156.123C97.0232 131.07 143.929 105.028 198.72 83.9522C253.511 62.8763 305.777 50.771 345.979 48.2268C366.083 46.9545 383.14 48.0752 395.978 51.642C408.828 55.212 417.349 61.2003 420.574 69.5839C423.799 77.9675 421.487 88.1227 414.342 99.3837C407.204 110.635 395.295 122.898 379.521 135.426C347.978 160.479 301.072 186.521 246.281 207.597Z" stroke="white"/>
<defs>
<filter id="filter0_f_328_910" x="145.182" y="67.2876" width="171.169" height="170.472" filterUnits="userSpaceOnUse" color-interpolation-filters="sRGB">
<feFlood flood-opacity="0" result="BackgroundImageFix"/>
<feBlend mode="normal" in="SourceGraphic" in2="BackgroundImageFix" result="shape"/>
<feGaussianBlur stdDeviation="28.5" result="effect1_foregroundBlur_328_910"/>
</filter>
</defs>
</svg>
